<?xml version="1.0" encoding="UTF-8"?>
<svg version="1.1" xmlns="http://www.w3.org/2000/svg" width="362" height="512">
<path d="M0 0 C0.7425 0.804375 1.485 1.60875 2.25 2.4375 C3.19939453 3.32888672 3.19939453 3.32888672 4.16796875 4.23828125 C15.03461229 15.71655576 17.35782621 30.33015709 17.22265625 45.5078125 C16.21198964 63.99561629 7.86961786 81.10277426 -1.14282227 96.91259766 C-1.60873779 97.73163574 -2.07465332 98.55067383 -2.5546875 99.39453125 C-2.97733887 100.12647705 -3.39999023 100.85842285 -3.83544922 101.61254883 C-4.89934223 103.39529234 -4.89934223 103.39529234 -4.75 105.4375 C-5.74754324 106.43995074 -6.74814193 107.43936153 -7.75 108.4375 C-10.28157854 112.20616467 -12.58877088 116.11529155 -14.9375 120 C-15.59169922 121.06669922 -16.24589844 122.13339844 -16.91992188 123.23242188 C-17.53802734 124.25013672 -18.15613281 125.26785156 -18.79296875 126.31640625 C-19.36039795 127.2504126 -19.92782715 128.18441895 -20.51245117 129.14672852 C-21.90843572 131.29682627 -21.90843572 131.29682627 -21.75 133.4375 C-23.25 135.0625 -23.25 135.0625 -24.75 136.4375 C-13.55994357 143.89753762 3.27669449 143.5549134 16.25 144.4375 C15.25 146.4375 15.25 146.4375 13.2109375 147.25390625 C11.93089844 147.62322266 11.93089844 147.62322266 10.625 148 C9.78710938 148.24878906 8.94921875 148.49757812 8.0859375 148.75390625 C0.61514408 150.55471734 -6.67194642 150.58919966 -14.3125 150.5625 C-15.42302734 150.56636719 -16.53355469 150.57023438 -17.67773438 150.57421875 C-19.29325195 150.57228516 -19.29325195 150.57228516 -20.94140625 150.5703125 C-21.91279541 150.56918457 -22.88418457 150.56805664 -23.88500977 150.56689453 C-26.90665437 150.43042486 -29.77885895 149.99151149 -32.75 149.4375 C-36.77189089 154.74165601 -40.68008346 160.11139999 -44.5 165.5625 C-47.55877018 169.92052382 -50.62078244 174.27418313 -53.75 178.58203125 C-54.21438477 179.22317871 -54.67876953 179.86432617 -55.15722656 180.52490234 C-56.0355413 181.73506036 -56.91756163 182.94253976 -57.80371094 184.14697266 C-60.05819205 186.99900483 -60.05819205 186.99900483 -60.75 190.4375 C-62.41666667 192.10416667 -64.08333333 193.77083333 -65.75 195.4375 C-67.10208636 197.42487018 -68.4329429 199.42674432 -69.75 201.4375 C-71.30466866 203.63122072 -72.86592938 205.8185199 -74.4375 208 C-78.52940825 213.70472187 -82.55483845 219.44984895 -86.5390625 225.23046875 C-88.00815691 227.36143432 -89.48209073 229.48907201 -90.9609375 231.61328125 C-93.23488077 234.88057868 -95.49744046 238.15544295 -97.75 241.4375 C-98.33152832 242.28320557 -98.33152832 242.28320557 -98.92480469 243.14599609 C-114.98770775 266.59572968 -130.06666257 291.52721037 -136.75 319.4375 C-136.94464844 320.2109375 -137.13929688 320.984375 -137.33984375 321.78125 C-140.73732148 336.6607145 -141.39084571 354.05199396 -135.75 368.4375 C-135.09 368.7675 -134.43 369.0975 -133.75 369.4375 C-133.21375 370.38625 -132.6775 371.335 -132.125 372.3125 C-129.10099574 376.29145297 -126.54490979 377.38560023 -121.75 378.4375 C-115.39840801 379.04241352 -110.64944127 377.72297057 -104.75 375.4375 C-103.780625 375.086875 -102.81125 374.73625 -101.8125 374.375 C-99.58784924 373.50943154 -99.58784924 373.50943154 -97.75 371.4375 C-96.203125 370.6021875 -96.203125 370.6021875 -94.625 369.75 C-86.65285339 365.16849666 -82.42693077 360.45721506 -78.53076172 352.05419922 C-71.57559401 337.30116621 -59.6829245 323.24329249 -46.75 313.4375 C-44.45703125 312.69140625 -44.45703125 312.69140625 -42.75 312.4375 C-42.75 311.7775 -42.75 311.1175 -42.75 310.4375 C-21.15617338 299.28289754 -0.83431373 294.36292509 23.25 301.4375 C24.18714844 301.69273437 25.12429687 301.94796875 26.08984375 302.2109375 C39.39210281 306.3714719 51.17764146 315.91392927 58.40234375 327.73828125 C59.25 329.4375 59.25 329.4375 59.25 331.4375 C59.91 331.4375 60.57 331.4375 61.25 331.4375 C61.3634375 330.56222656 61.476875 329.68695313 61.59375 328.78515625 C63.81675818 317.4451681 72.87288134 303.17053127 82.25 296.4375 C83.89553407 295.36276056 85.56235022 294.31981596 87.25 293.3125 C88.075 292.81492187 88.9 292.31734375 89.75 291.8046875 C98.25843398 287.15163767 108.8242625 286.04054854 118.2265625 288.64453125 C127.78354093 292.38983361 134.10838164 299.17223006 138.25 308.4375 C141.15972236 315.89148996 141.52052324 323.27935461 141.5625 331.1875 C141.56805908 332.07469727 141.57361816 332.96189453 141.5793457 333.87597656 C141.42751969 347.7401574 136.6862572 359.97920995 126.9921875 369.9609375 C116.2682943 379.64604903 104.14222576 384.59175249 89.75 384.5625 C88.4815625 384.56507813 87.213125 384.56765625 85.90625 384.5703125 C82.58894482 384.4498121 79.50369236 384.0701624 76.25 383.4375 C79.04408323 381.57477785 81.16111575 380.72133541 84.3125 379.6875 C99.83031388 374.08723908 114.4512219 361.87234621 121.625 346.8125 C125.50560304 337.22707883 125.17411125 326.26251381 122.25 316.4375 C120.24440583 312.3520304 118.90273303 310.80697153 114.9375 308.5625 C107.76429901 306.3740658 101.95346449 307.43096277 95.25 310.4375 C88.90489297 313.73659695 88.90489297 313.73659695 85.25 319.4375 C84.26 319.4375 83.27 319.4375 82.25 319.4375 C81.98832031 320.1284375 81.72664062 320.819375 81.45703125 321.53125 C80.11343686 324.76631221 78.54672226 327.82609908 76.9375 330.9375 C70.7939192 343.08212284 66.12036244 355.56316394 64.6875 369.1875 C64.543125 370.26 64.39875 371.3325 64.25 372.4375 C63.59 372.7675 62.93 373.0975 62.25 373.4375 C62.00765625 372.45910156 61.7653125 371.48070312 61.515625 370.47265625 C58.03105441 356.70842661 53.0480372 344.05204031 43.25 333.4375 C42.59 333.1075 41.93 332.7775 41.25 332.4375 C41.25 331.7775 41.25 331.1175 41.25 330.4375 C40.48429687 330.06431641 40.48429687 330.06431641 39.703125 329.68359375 C37.75554754 328.69429883 35.83363447 327.6545092 33.921875 326.59765625 C24.49332223 321.48961481 15.90496823 318.62780556 5.25 317.4375 C4.37085938 317.33566406 3.49171875 317.23382813 2.5859375 317.12890625 C-11.85560137 316.33196514 -25.24668567 322.66191477 -36.55078125 330.94921875 C-38.75 332.4375 -38.75 332.4375 -41.75 333.4375 C-42.08 334.4275 -42.41 335.4175 -42.75 336.4375 C-43.41 336.4375 -44.07 336.4375 -44.75 336.4375 C-44.75 337.0975 -44.75 337.7575 -44.75 338.4375 C-45.41 338.4375 -46.07 338.4375 -46.75 338.4375 C-48.16385911 340.81912009 -48.16385911 340.81912009 -48.75 343.4375 C-47.91855469 343.27636719 -47.08710938 343.11523438 -46.23046875 342.94921875 C-27.3914795 340.17940103 -11.05347273 344.20761354 4.25 355.4375 C14.26298242 364.21223574 22.46795538 375.78711141 23.38793945 389.49243164 C24.13802956 407.06936065 20.42777649 419.57930359 11.25 434.4375 C10.59 434.4375 9.93 434.4375 9.25 434.4375 C8.981875 435.02273438 8.71375 435.60796875 8.4375 436.2109375 C6.34413658 440.13599392 3.25361187 443.18639951 0.25 446.4375 C-0.43835938 447.20320313 -1.12671875 447.96890625 -1.8359375 448.7578125 C-13.52024984 461.15993243 -28.50756363 471.16556474 -44.75 476.4375 C-45.8121875 476.78683594 -46.874375 477.13617188 -47.96875 477.49609375 C-58.26553944 480.05965393 -69.39046516 479.59900819 -78.75 474.4375 C-79.430625 474.13328125 -80.11125 473.8290625 -80.8125 473.515625 C-88.71495438 469.50265988 -94.65624589 460.15989112 -97.6875 452 C-98.09138617 450.4916088 -98.44090663 448.96813037 -98.75 447.4375 C-98.96269531 446.40238281 -99.17539063 445.36726563 -99.39453125 444.30078125 C-100.92263776 435.49691599 -100.71467734 427.29250996 -99.75 418.4375 C-99.54503906 416.50970703 -99.54503906 416.50970703 -99.3359375 414.54296875 C-98.4286238 406.95382792 -97.02595635 399.73573337 -94.75 392.4375 C-95.29527344 392.70304687 -95.84054688 392.96859375 -96.40234375 393.2421875 C-107.57302349 398.47426656 -119.24488812 400.63907658 -131.20703125 396.53125 C-143.23495923 391.35794764 -150.04623203 383.51605332 -154.9765625 371.52734375 C-162.82913857 350.30952456 -159.54323771 324.43912925 -152.75 303.4375 C-152.42515625 302.38820313 -152.1003125 301.33890625 -151.765625 300.2578125 C-144.64336495 278.7362006 -132.95751348 259.39447046 -120.75 240.4375 C-120.25580566 239.66905762 -119.76161133 238.90061523 -119.25244141 238.10888672 C-113.98462642 229.9677181 -108.41008477 222.04302031 -102.77050781 214.15600586 C-100.2741325 210.65579931 -97.9386728 207.14140781 -95.75 203.4375 C-94.87497512 202.21401389 -93.9792398 201.00504977 -93.0625 199.8125 C-89.2138349 194.74352645 -85.48167545 189.59287832 -81.75 184.4375 C-81.24984375 183.74736816 -80.7496875 183.05723633 -80.234375 182.34619141 C-70.73618037 169.23811744 -61.43295409 156.10183138 -52.75 142.4375 C-53.37865967 142.07624023 -54.00731934 141.71498047 -54.6550293 141.34277344 C-70.53607596 132.14504294 -84.23849079 122.90911158 -95.75 108.4375 C-96.23210937 107.86128906 -96.71421875 107.28507812 -97.2109375 106.69140625 C-107.54130962 91.56291713 -111.51263779 71.33786199 -109.3046875 53.32421875 C-106.37763482 38.09117697 -99.99615239 22.97669267 -88.96484375 11.8203125 C-87.52999809 10.49385587 -87.52999809 10.49385587 -87.75 8.4375 C-86.11739286 7.06267293 -84.44774938 5.73102333 -82.75 4.4375 C-82.09 3.7775 -81.43 3.1175 -80.75 2.4375 C-57.37743396 -14.96091239 -23.3479189 -21.75601534 0 0 Z M-50.75 7.4375 C-51.69359375 7.72238281 -52.6371875 8.00726563 -53.609375 8.30078125 C-69.68718599 14.02798076 -79.13178995 27.74733137 -86.48828125 42.48046875 C-92.57440237 56.74422629 -91.81038012 72.02266454 -86.47314453 86.25976562 C-83.6270485 93.31103916 -79.72247659 99.66942715 -74.75 105.4375 C-73.265 105.9325 -73.265 105.9325 -71.75 106.4375 C-70.5625 109 -70.5625 109 -69.75 111.4375 C-69.09 111.4375 -68.43 111.4375 -67.75 111.4375 C-67.75 112.0975 -67.75 112.7575 -67.75 113.4375 C-60.80260582 120.25683162 -52.23197678 124.84207742 -43.75 129.4375 C-39.96099597 126.06184186 -37.72128948 122.29523553 -35.25 117.9375 C-34.36699767 116.40560835 -33.48283366 114.87438585 -32.59765625 113.34375 C-31.90373779 112.14105469 -31.90373779 112.14105469 -31.19580078 110.9140625 C-29.24415348 107.57101788 -27.23168144 104.26649566 -25.21899414 100.95996094 C-16.24069397 86.17217241 -8.33734964 72.18951787 -3.75 55.4375 C-3.42 54.4475 -3.09 53.4575 -2.75 52.4375 C-2.49327591 48.87953747 -2.51861057 45.31624967 -2.5 41.75 C-2.479375 40.78126953 -2.45875 39.81253906 -2.4375 38.81445312 C-2.38428717 28.97673087 -5.06132891 21.75421532 -11.75 14.4375 C-22.23893118 4.93344499 -37.53329054 3.34364503 -50.75 7.4375 Z M-66.75 371.4375 C-69.00820863 374.79563852 -70.44954876 378.06064367 -71.6875 381.90234375 C-72.02386475 382.94318115 -72.36022949 383.98401855 -72.70678711 385.05639648 C-73.05104736 386.15153564 -73.39530762 387.2466748 -73.75 388.375 C-74.10521729 389.497854 -74.46043457 390.62070801 -74.82641602 391.77758789 C-78.27205531 402.83864151 -81.11554836 413.81910441 -81.75 425.4375 C-81.79125 426.17226563 -81.8325 426.90703125 -81.875 427.6640625 C-82.12601025 436.54355012 -80.95321767 446.01154857 -75.75 453.4375 C-72.3816856 456.9826288 -69.17490851 459.24557421 -64.18359375 459.640625 C-48.1345939 459.89171757 -33.72059603 452.58957354 -21.9375 441.84765625 C-20.53528808 440.48978885 -20.53528808 440.48978885 -20.75 438.4375 C-18.275 437.4475 -18.275 437.4475 -15.75 436.4375 C-15.75 435.7775 -15.75 435.1175 -15.75 434.4375 C-15.09 434.4375 -14.43 434.4375 -13.75 434.4375 C-3.58525259 424.83597079 5.33199134 411.47249153 5.75 397.1875 C5.34132352 388.7930641 2.65539432 380.98462777 -2.75 374.4375 C-3.41 374.4375 -4.07 374.4375 -4.75 374.4375 C-5.245 372.9525 -5.245 372.9525 -5.75 371.4375 C-6.41 371.2725 -7.07 371.1075 -7.75 370.9375 C-8.41 370.7725 -9.07 370.6075 -9.75 370.4375 C-10.245 368.9525 -10.245 368.9525 -10.75 367.4375 C-12.36765088 366.26790636 -12.36765088 366.26790636 -14.375 365.375 C-15.35339844 364.89353516 -15.35339844 364.89353516 -16.3515625 364.40234375 C-33.00152825 357.70439336 -52.32589665 360.92250184 -66.75 371.4375 Z " fill="#F4831F" transform="translate(190.75,24.5625)"/>
<path d="M0 0 C5.94 0 11.88 0 18 0 C19.49735001 7.48675004 18.12647056 15.02874719 14.49609375 21.80859375 C13.47246894 23.31073232 12.41245865 24.789264 11.3046875 26.23046875 C9.8031006 28.07659241 9.8031006 28.07659241 9 31 C8.01 31 7.02 31 6 31 C6 31.66 6 32.32 6 33 C-11.30654071 42.32657957 -26.74275388 44.23840522 -46 39 C-48.83350391 38.09828398 -51.60784687 37.08749219 -54.375 36 C-55.01155518 35.7510498 -55.64811035 35.50209961 -56.30395508 35.24560547 C-59.6521191 33.84468851 -60.92987094 33.10519359 -63 30 C-62.00742188 30.0721875 -61.01484375 30.144375 -59.9921875 30.21875 C-33.93197992 32.62651032 -33.93197992 32.62651032 -10 24 C-2.53401325 17.37235498 -0.66166686 9.66033617 0 0 Z " fill="#F3831F" transform="translate(250,262)"/>
<path d="M0 0 C3.8886235 2.55830494 5.42698176 6.06638406 6.375 10.5625 C5.88586982 14.88994339 4.49097029 18.28710538 1.625 21.5625 C-2.80514559 23.53145359 -6.38645489 23.90028503 -11.0625 22.625 C-12.3309375 22.0990625 -12.3309375 22.0990625 -13.625 21.5625 C-13.625 20.9025 -13.625 20.2425 -13.625 19.5625 C-14.615 19.2325 -15.605 18.9025 -16.625 18.5625 C-18.19690666 13.84678001 -18.12755135 10.01431501 -16.5 5.3125 C-12.32688113 -0.80807434 -6.8173971 -1.13623285 0 0 Z " fill="#F3831E" transform="translate(223.625,242.4375)"/>
<path d="" fill="#000000" transform="translate(0,0)"/>
</svg>
